<svg width="224" height="47" viewBox="0 0 224 47" fill="none" xmlns="http://www.w3.org/2000/svg">
<g clip-path="url(#clip0)">
<path d="M83.257 35.395C81.025 35.395 79.413 34.8783 78.421 33.845C77.4497 32.791 76.964 31.086 76.964 28.73V17.756L70.175 34H69.152L60.844 17.136V34H59.294V13.54H63.076L70.578 28.761L76.933 13.54H80.994V28.73C80.994 30.6727 81.1593 32.0987 81.49 33.008C81.8207 33.9173 82.4097 34.4547 83.257 34.62V35.395ZM89.8096 34.31C88.1356 34.31 86.8336 33.938 85.9036 33.194C84.9943 32.4293 84.5396 31.4063 84.5396 30.125C84.5396 29.0917 84.7773 28.234 85.2526 27.552C85.7486 26.87 86.6063 26.3533 87.8256 26.002C89.045 25.6507 90.7396 25.475 92.9096 25.475H93.3746C93.3746 23.677 93.1266 22.406 92.6306 21.662C92.1346 20.8973 91.401 20.515 90.4296 20.515C89.6236 20.515 88.9623 20.7113 88.4456 21.104C87.929 21.4967 87.557 22.2303 87.3296 23.305H85.6246C85.6246 22.6023 85.666 22.003 85.7486 21.507C85.852 21.011 86.069 20.577 86.3996 20.205C87.0403 19.4817 88.5903 19.12 91.0496 19.12C93.1163 19.12 94.687 19.6677 95.7616 20.763C96.857 21.8377 97.4046 23.46 97.4046 25.63V34H94.7696L93.6846 32.605H93.5296C93.3436 32.8943 93.0543 33.1837 92.6616 33.473C91.959 34.031 91.0083 34.31 89.8096 34.31ZM90.7396 32.76C91.1736 32.76 91.5456 32.6773 91.8556 32.512C92.1656 32.326 92.4653 32.078 92.7546 31.768C93.0233 31.4787 93.23 31.1377 93.3746 30.745V26.87H92.9096C91.4423 26.87 90.378 27.1387 89.7166 27.676C89.0553 28.1927 88.7246 29.009 88.7246 30.125C88.7246 30.9723 88.9003 31.6233 89.2516 32.078C89.603 32.5327 90.099 32.76 90.7396 32.76ZM106.026 34.31C104.6 34.31 103.494 33.9277 102.709 33.163C101.923 32.3777 101.531 31.2513 101.531 29.784V20.825H99.6705V19.43H101.531V16.64L103.081 14.78H105.561V19.43H108.971V20.825H105.561V29.97C105.561 31.086 105.695 31.861 105.964 32.295C106.232 32.7083 106.635 32.915 107.173 32.915C107.751 32.915 108.33 32.7807 108.909 32.512C109.136 32.388 109.374 32.2433 109.622 32.078L110.056 32.946C109.787 33.1733 109.467 33.4007 109.095 33.628C108.227 34.0827 107.204 34.31 106.026 34.31ZM121.79 19.74C122.162 20.0087 122.43 20.3083 122.596 20.639C122.761 20.949 122.844 21.1143 122.844 21.135L121.263 22.344C121.118 22.158 120.932 21.9617 120.705 21.755C120.25 21.3417 119.723 21.135 119.124 21.135C117.925 21.135 117.005 21.4553 116.365 22.096L116.427 22.561C116.468 22.933 116.489 23.274 116.489 23.584V34H112.459V23.46C112.459 22.406 112.314 21.631 112.025 21.135C111.756 20.6183 111.188 20.36 110.32 20.36H110.01V19.43H113.079C113.781 19.43 114.329 19.523 114.722 19.709C115.135 19.8743 115.455 20.1637 115.683 20.577C116.799 19.6057 118.101 19.12 119.589 19.12C120.477 19.12 121.211 19.3267 121.79 19.74ZM131.219 34.31C129.71 34.31 128.388 33.9793 127.251 33.318C126.135 32.636 125.277 31.7267 124.678 30.59C124.079 29.4327 123.779 28.141 123.779 26.715C123.779 25.289 124.079 24.0077 124.678 22.871C125.277 21.7137 126.135 20.8043 127.251 20.143C128.388 19.461 129.71 19.12 131.219 19.12C132.728 19.12 134.04 19.461 135.156 20.143C136.293 20.8043 137.161 21.7137 137.76 22.871C138.359 24.0077 138.659 25.289 138.659 26.715C138.659 28.141 138.359 29.4327 137.76 30.59C137.161 31.7267 136.293 32.636 135.156 33.318C134.04 33.9793 132.728 34.31 131.219 34.31ZM131.219 32.915C132.273 32.915 133.079 32.3467 133.637 31.21C134.195 30.0733 134.474 28.575 134.474 26.715C134.474 24.855 134.195 23.3567 133.637 22.22C133.079 21.0833 132.273 20.515 131.219 20.515C130.165 20.515 129.359 21.0833 128.801 22.22C128.243 23.3567 127.964 24.855 127.964 26.715C127.964 28.575 128.243 30.0733 128.801 31.21C129.359 32.3467 130.165 32.915 131.219 32.915ZM142.248 23.46C142.248 22.406 142.103 21.631 141.814 21.135C141.545 20.6183 140.977 20.36 140.109 20.36H139.799V19.43H142.868C144.211 19.43 145.089 19.8227 145.503 20.608H145.627C146.763 19.616 148.065 19.12 149.533 19.12C150.545 19.12 151.424 19.3163 152.168 19.709C152.932 20.081 153.48 20.4737 153.811 20.887C154.307 20.3497 154.896 19.926 155.578 19.616C156.26 19.2853 157.138 19.12 158.213 19.12C161.829 19.12 163.638 21.0213 163.638 24.824V34H159.608V24.793C159.608 23.367 159.38 22.3233 158.926 21.662C158.471 21.0007 157.872 20.67 157.128 20.67C156.57 20.67 156.053 20.7837 155.578 21.011C155.102 21.2177 154.73 21.4967 154.462 21.848C154.503 21.9307 154.586 22.158 154.71 22.53C154.875 23.15 154.958 23.9147 154.958 24.824V34H150.928V24.793C150.928 23.367 150.7 22.3233 150.246 21.662C149.791 21.0007 149.192 20.67 148.448 20.67C148.014 20.67 147.559 20.8043 147.084 21.073C146.629 21.321 146.288 21.6 146.061 21.91L146.154 22.344C146.236 22.592 146.278 22.995 146.278 23.553V34H142.248V23.46ZM171.548 34.31C169.874 34.31 168.572 33.938 167.642 33.194C166.733 32.4293 166.278 31.4063 166.278 30.125C166.278 29.0917 166.516 28.234 166.991 27.552C167.487 26.87 168.345 26.3533 169.564 26.002C170.783 25.6507 172.478 25.475 174.648 25.475H175.113C175.113 23.677 174.865 22.406 174.369 21.662C173.873 20.8973 173.139 20.515 172.168 20.515C171.362 20.515 170.701 20.7113 170.184 21.104C169.667 21.4967 169.295 22.2303 169.068 23.305H167.363C167.363 22.6023 167.404 22.003 167.487 21.507C167.59 21.011 167.807 20.577 168.138 20.205C168.779 19.4817 170.329 19.12 172.788 19.12C174.855 19.12 176.425 19.6677 177.5 20.763C178.595 21.8377 179.143 23.46 179.143 25.63V34H176.508L175.423 32.605H175.268C175.082 32.8943 174.793 33.1837 174.4 33.473C173.697 34.031 172.747 34.31 171.548 34.31ZM172.478 32.76C172.912 32.76 173.284 32.6773 173.594 32.512C173.904 32.326 174.204 32.078 174.493 31.768C174.762 31.4787 174.968 31.1377 175.113 30.745V26.87H174.648C173.181 26.87 172.116 27.1387 171.455 27.676C170.794 28.1927 170.463 29.009 170.463 30.125C170.463 30.9723 170.639 31.6233 170.99 32.078C171.341 32.5327 171.837 32.76 172.478 32.76ZM187.764 34.31C186.338 34.31 185.232 33.9277 184.447 33.163C183.661 32.3777 183.269 31.2513 183.269 29.784V20.825H181.409V19.43H183.269V16.64L184.819 14.78H187.299V19.43H190.709V20.825H187.299V29.97C187.299 31.086 187.433 31.861 187.702 32.295C187.97 32.7083 188.373 32.915 188.911 32.915C189.489 32.915 190.068 32.7807 190.647 32.512C190.874 32.388 191.112 32.2433 191.36 32.078L191.794 32.946C191.525 33.1733 191.205 33.4007 190.833 33.628C189.965 34.0827 188.942 34.31 187.764 34.31ZM200.273 34.31C198.681 34.31 197.328 33.969 196.212 33.287C195.096 32.605 194.248 31.6957 193.67 30.559C193.112 29.4017 192.833 28.1203 192.833 26.715C192.833 25.3097 193.112 24.0387 193.67 22.902C194.248 21.7447 195.096 20.825 196.212 20.143C197.328 19.461 198.681 19.12 200.273 19.12C202.753 19.12 204.354 19.4817 205.078 20.205C205.429 20.5563 205.646 21.0213 205.729 21.6C205.811 22.1787 205.853 23.1603 205.853 24.545H204.923C204.84 23.243 204.437 22.251 203.714 21.569C202.99 20.8663 201.998 20.515 200.738 20.515C199.601 20.515 198.692 21.042 198.01 22.096C197.348 23.1293 197.018 24.669 197.018 26.715C197.018 30.8483 198.309 32.915 200.893 32.915C201.885 32.915 202.711 32.698 203.373 32.264C204.055 31.8093 204.706 31.1687 205.326 30.342L206.287 31.055C205.687 31.985 204.933 32.76 204.024 33.38C203.114 34 201.864 34.31 200.273 34.31ZM208.956 17.57C208.956 16.516 208.811 15.741 208.522 15.245C208.232 14.7283 207.654 14.47 206.786 14.47H206.476V13.54H210.196C210.94 13.54 211.508 13.664 211.901 13.912C212.293 14.16 212.572 14.5733 212.738 15.152C212.903 15.71 212.986 16.516 212.986 17.57V20.298C213.172 20.1533 213.492 19.957 213.947 19.709C214.773 19.3163 215.59 19.12 216.396 19.12C218.07 19.12 219.465 19.554 220.581 20.422C221.717 21.2693 222.286 22.7263 222.286 24.793V34H218.256V24.948C218.256 23.46 217.987 22.375 217.45 21.693C216.933 21.011 216.272 20.67 215.466 20.67C214.908 20.67 214.319 20.856 213.699 21.228C213.451 21.3727 213.213 21.5483 212.986 21.755V34H208.956V17.57Z" fill="white"/>
<path d="M24.0808 1.04563C23.0482 1.20585 22.4608 2.80811 23.0304 3.89409C23.5111 4.80204 25.6653 6.60013 26.2706 6.60013C26.7334 6.60013 28.9232 4.78423 29.3861 4.05431C30.5255 2.16721 28.4603 0.0130587 26.9115 1.4907C26.3062 2.07819 26.1638 2.07819 25.6475 1.54411C25.2202 1.09904 24.7395 0.938809 24.0808 1.04563Z" fill="white"/>
<path d="M36.3648 7.1342C35.2432 7.81071 34.8694 8.87889 35.3144 10.0717C35.6527 10.9262 37.3796 12.6887 38.786 13.561L39.5871 14.0773L40.2458 13.6679C41.225 13.0982 42.8451 11.6383 43.4504 10.8194C44.5007 9.37737 43.9844 7.47246 42.4356 6.95617C41.6167 6.67133 41.0826 6.83155 40.2458 7.57928L39.5693 8.20238L39.1421 7.7395C38.2163 6.76034 37.3084 6.54671 36.3648 7.1342Z" fill="white"/>
<path d="M8.77032 9.87585C6.43815 10.4455 3.76771 12.4039 2.52151 14.469C0.830236 17.2819 0.54539 20.611 1.68477 24.0648C2.16545 25.4712 3.32264 27.6075 4.85369 29.9397L5.74383 31.2927L6.26012 30.7052C6.54496 30.3848 6.97223 29.6549 7.20367 29.0852C7.77336 27.6787 9.251 22.8898 9.251 22.4447C9.251 22.2489 9.09078 21.9284 8.87714 21.7148C8.55669 21.3943 8.43207 21.3765 7.95139 21.5367C7.54193 21.697 7.3639 21.6792 7.25708 21.5189C7.02564 21.1273 7.09685 20.8602 8.0048 18.7951C9.05517 16.4273 9.09078 16.0535 8.36086 15.644C7.68435 15.2701 7.66655 14.6826 8.27184 13.7213C9.01957 12.5285 10.0877 12.297 10.9245 13.116C11.3517 13.561 11.3873 13.561 11.3873 13.2406C11.3873 12.7421 11.779 12.4573 12.5801 12.3505C13.5949 12.2258 14.04 12.6709 14.0756 13.8103C14.0934 14.291 14.04 14.9141 13.9688 15.1633C13.8085 15.7864 14.5385 16.6409 15.5354 16.9792C16.2831 17.2284 16.3188 17.2284 16.7282 16.8012C16.9419 16.5697 17.2623 16.3917 17.4047 16.4273C17.743 16.4985 17.9922 17.3353 17.8676 17.994C17.7964 18.3144 17.9388 18.8129 18.3305 19.5962C18.7043 20.3261 18.8646 20.8424 18.7934 21.1273C18.6509 21.697 17.921 21.8572 17.1733 21.5011C16.5858 21.2163 16.5502 21.2341 15.8559 21.7326C15.0191 22.3379 14.7877 23.1212 15.126 24.1538C15.2506 24.5098 15.3396 25.2575 15.3218 25.7916C15.304 26.7174 15.3396 26.8064 16.1941 27.7321C16.6926 28.2662 17.1377 28.8893 17.1911 29.103C17.2445 29.3344 17.1199 29.9575 16.9419 30.5094L16.5858 31.5064L18.3483 32.6814C19.3274 33.3223 20.3778 33.9454 20.6983 34.0522C21.0187 34.159 21.3926 34.3904 21.535 34.5507C21.6774 34.7287 21.9801 34.9601 22.2115 35.0669C22.7278 35.334 22.71 35.7078 22.1759 36.2419C21.9267 36.4734 21.6774 36.865 21.624 37.0787C21.3392 38.0044 20.3244 38.4317 19.5767 37.9332C19.3452 37.7908 19.3808 37.7374 19.7191 37.6484C20.1286 37.5237 20.271 37.2211 19.8971 37.2211C19.7725 37.2211 18.829 36.6514 17.7964 35.9749C16.7638 35.2984 15.8737 34.7287 15.8203 34.7287C15.7669 34.7287 15.66 35.3518 15.5888 36.0995C15.4642 37.3991 15.482 37.4881 15.8737 37.773C16.2297 38.04 16.2475 38.1112 15.9805 38.2002C15.8203 38.2715 15.393 38.2893 15.0191 38.2537C14.4494 38.2181 14.307 38.129 14.2714 37.7908C14.218 37.4881 14.129 37.4169 13.8976 37.4881C13.6127 37.5771 13.5949 37.4881 13.7017 36.7048C13.7551 36.2241 13.951 35.6366 14.1112 35.3874C14.5385 34.7287 14.5029 33.4469 14.0578 33.0374C13.862 32.8594 13.3279 32.0404 12.865 31.2215L12.0283 29.7439L11.4408 32.717C11.1203 34.3726 10.8533 36.2241 10.8533 36.8472V37.9866L12.5089 39.6601C13.3991 40.5858 14.4138 41.5116 14.7343 41.7074C15.5354 42.2059 16.657 42.0813 18.9536 41.2267C20.7695 40.568 27.588 37.2745 27.588 37.0609C27.588 36.9897 26.9293 36.2597 26.1103 35.4408C23.7604 33.0196 22.7812 30.7408 22.7812 27.6787C22.7812 24.7235 23.6891 22.5693 25.7899 20.4864C27.7838 18.5103 29.7599 17.6379 32.3057 17.6379C33.8724 17.6379 35.3322 18.0118 36.7921 18.7773C37.4152 19.1156 37.9137 19.3114 37.9137 19.2402C37.9137 19.169 37.5042 18.5459 37.0235 17.8515C35.083 15.0921 32.1455 13.5789 29.119 13.7747C27.1429 13.8993 25.4694 14.558 23.1017 16.1603C22.0335 16.8724 21.0721 17.4599 20.9475 17.4599C20.8229 17.4599 20.449 16.997 20.1108 16.4273C18.2415 13.294 16.5146 11.3179 14.9479 10.5168C13.2745 9.66222 10.7464 9.41298 8.77032 9.87585Z" fill="white"/>
<path d="M11.1737 16.0178C10.7642 16.8724 10.7642 16.9258 11.2805 16.9258C11.8858 16.9258 12.1351 16.1959 11.7078 15.6262C11.4942 15.3769 11.4407 15.4126 11.1737 16.0178Z" fill="white"/>
<path d="M44.9992 17.2819C43.0943 17.6201 41.3318 19.0621 39.8898 21.5011C39.4803 22.2133 39.0352 22.8542 38.9106 22.961C38.7682 23.0856 38.3587 22.9076 37.5576 22.3201C36.9167 21.875 35.8841 21.2697 35.2432 20.9492C34.175 20.4508 33.9436 20.3974 32.3057 20.3974C30.7035 20.3974 30.4364 20.4508 29.5819 20.8958C26.9293 22.2845 25.4338 24.7235 25.4338 27.6431C25.416 30.9545 26.8937 33.251 30.5611 35.6722C34.8516 38.5207 40.8155 41.3158 42.5602 41.3158C43.1833 41.3158 43.3969 41.1733 44.6609 39.9627C47.0287 37.7196 50.7851 32.6992 52.2984 29.7795C53.7048 27.0734 54.0075 24.7057 53.2241 22.3735C52.0848 18.9375 48.453 16.6944 44.9992 17.2819ZM45.3731 23.0856C47.723 24.2606 48.4886 27.02 47.1712 29.6193C46.4768 31.0079 44.4295 33.6961 42.8807 35.2628C41.6523 36.509 41.581 36.5446 40.9045 36.4556C39.9432 36.3309 37.2549 34.9601 34.9762 33.4469C32.3413 31.72 31.5402 30.545 31.5224 28.4087C31.5046 27.0378 31.9319 26.1121 33.0001 25.1685C34.5667 23.7799 36.4716 23.7977 38.3231 25.2041C38.7682 25.5424 39.1777 25.8272 39.2133 25.8272C39.2667 25.8272 39.6939 25.2754 40.1746 24.6166C41.6523 22.6049 43.3791 22.0886 45.3731 23.0856Z" fill="white"/>
<path d="M7.41732 32.3253L6.91884 32.9484L7.55974 33.7673L8.18284 34.6041L8.16504 33.4647C8.16504 32.8416 8.09383 32.1829 8.04042 32.0226C7.9336 31.7556 7.84459 31.7912 7.41732 32.3253Z" fill="white"/>
<path d="M124.89 40.52C124.957 40.1133 125.037 39.6333 125.13 39.08C125.23 38.5267 125.28 38.2233 125.28 38.17C125.28 37.9833 125.237 37.8433 125.15 37.75C125.063 37.65 124.917 37.6 124.71 37.6H124.51L124.55 37.4H125.45C125.73 37.4 125.923 37.44 126.03 37.52C126.143 37.6 126.2 37.7633 126.2 38.01C126.2 38.11 126.143 38.5033 126.03 39.19C125.917 39.87 125.637 41.4733 125.19 44H124.29L124.89 40.52ZM128.491 44.1C127.931 44.1 127.501 43.9333 127.201 43.6C126.908 43.26 126.761 42.8167 126.761 42.27C126.761 41.79 126.865 41.3133 127.071 40.84C127.278 40.36 127.578 39.9667 127.971 39.66C128.365 39.3533 128.825 39.2 129.351 39.2C129.918 39.2 130.338 39.3067 130.611 39.52C130.885 39.7267 131.021 40 131.021 40.34C131.021 40.6867 130.921 40.9867 130.721 41.24C130.528 41.4867 130.271 41.6767 129.951 41.81C129.631 41.9367 129.285 42 128.911 42H127.711C127.685 42.1333 127.671 42.27 127.671 42.41C127.671 42.7833 127.765 43.0933 127.951 43.34C128.145 43.58 128.415 43.7 128.761 43.7C129.075 43.7 129.351 43.6333 129.591 43.5C129.831 43.3667 130.068 43.1667 130.301 42.9L130.471 43.05C130.185 43.4233 129.881 43.6933 129.561 43.86C129.241 44.02 128.885 44.1 128.491 44.1ZM128.931 41.6C129.258 41.5867 129.528 41.4667 129.741 41.24C129.961 41.0067 130.071 40.7133 130.071 40.36C130.071 40.12 130.001 39.9333 129.861 39.8C129.728 39.6667 129.535 39.6 129.281 39.6C128.928 39.6 128.618 39.7767 128.351 40.13C128.085 40.4833 127.895 40.9733 127.781 41.6H128.931ZM132.904 44.1C132.591 44.1 132.344 44.02 132.164 43.86C131.991 43.7 131.904 43.4633 131.904 43.15C131.904 43.0433 132.094 41.8933 132.474 39.7H131.774L131.844 39.3H132.544L132.704 38.4L133.314 37.8H133.714L133.444 39.3H134.644L134.574 39.7H133.374C132.994 41.88 132.804 43.0133 132.804 43.1C132.804 43.5 132.994 43.7 133.374 43.7C133.534 43.7 133.671 43.6833 133.784 43.65C133.904 43.6167 134.028 43.5667 134.154 43.5L134.224 43.7C134.044 43.82 133.854 43.9167 133.654 43.99C133.461 44.0633 133.211 44.1 132.904 44.1ZM136.474 44.1C136.034 44.1 135.65 44.0467 135.324 43.94C135.004 43.8333 134.844 43.6033 134.844 43.25C134.844 43.1567 134.854 43.0467 134.874 42.92C134.9 42.7867 134.917 42.6967 134.924 42.65H135.124V42.67C135.124 42.9967 135.224 43.25 135.424 43.43C135.624 43.61 135.93 43.7 136.344 43.7C136.644 43.7 136.924 43.6333 137.184 43.5C137.444 43.3667 137.574 43.1567 137.574 42.87C137.574 42.71 137.514 42.5733 137.394 42.46C137.28 42.34 137.09 42.22 136.824 42.1L136.264 41.85C135.944 41.71 135.7 41.55 135.534 41.37C135.367 41.1833 135.284 40.9633 135.284 40.71C135.284 40.4033 135.374 40.1367 135.554 39.91C135.74 39.6767 135.977 39.5 136.264 39.38C136.557 39.26 136.864 39.2 137.184 39.2C138.23 39.2 138.754 39.4767 138.754 40.03C138.754 40.1367 138.744 40.2567 138.724 40.39C138.704 40.5233 138.69 40.61 138.684 40.65H138.484V40.63C138.484 40.3033 138.387 40.05 138.194 39.87C138 39.69 137.707 39.6 137.314 39.6C137.04 39.6 136.784 39.6667 136.544 39.8C136.304 39.9267 136.184 40.1267 136.184 40.4C136.184 40.7067 136.404 40.9567 136.844 41.15L137.394 41.4C137.767 41.5667 138.04 41.7367 138.214 41.91C138.387 42.0833 138.474 42.3 138.474 42.56C138.474 42.88 138.377 43.1567 138.184 43.39C137.997 43.6233 137.75 43.8 137.444 43.92C137.137 44.04 136.814 44.1 136.474 44.1ZM140.856 45.7C141.169 45.7 141.436 45.53 141.656 45.19C141.869 44.85 142.029 44.37 142.136 43.75L142.846 39.7H142.146L142.216 39.3H142.916L142.976 39C143.196 37.8667 143.879 37.3 145.026 37.3C145.446 37.3 145.719 37.35 145.846 37.45C145.966 37.5367 146.056 37.6867 146.116 37.9L145.776 38.15C145.703 37.9967 145.596 37.8833 145.456 37.81C145.316 37.7367 145.133 37.7 144.906 37.7C144.666 37.7 144.456 37.8 144.276 38C144.103 38.2 143.969 38.5333 143.876 39L143.816 39.3H145.216L145.146 39.7H143.746L143.036 43.75C142.943 44.27 142.813 44.6833 142.646 44.99C142.486 45.3033 142.259 45.5333 141.966 45.68C141.673 45.8267 141.289 45.9 140.816 45.9L140.856 45.7ZM146.873 38.7C146.739 38.7 146.629 38.65 146.543 38.55C146.456 38.45 146.413 38.3267 146.413 38.18C146.413 38.02 146.463 37.8867 146.563 37.78C146.663 37.6667 146.796 37.61 146.963 37.61C147.096 37.61 147.206 37.66 147.293 37.76C147.379 37.86 147.423 37.9833 147.423 38.13C147.423 38.29 147.373 38.4267 147.273 38.54C147.173 38.6467 147.039 38.7 146.873 38.7ZM145.563 44C145.816 42.5667 145.989 41.5667 146.083 41C146.176 40.4333 146.223 40.1167 146.223 40.05C146.223 39.8633 146.179 39.7267 146.093 39.64C146.006 39.5467 145.859 39.5 145.653 39.5H145.453L145.483 39.3H146.383C146.656 39.3 146.849 39.3433 146.963 39.43C147.083 39.51 147.143 39.67 147.143 39.91C147.143 39.97 147.119 40.14 147.073 40.42C147.033 40.6933 146.956 41.1533 146.843 41.8L146.463 44H145.563ZM148.072 44C148.326 42.5667 148.499 41.5667 148.592 41C148.686 40.4333 148.732 40.1167 148.732 40.05C148.732 39.8633 148.689 39.7267 148.602 39.64C148.516 39.5467 148.369 39.5 148.162 39.5H147.962L147.992 39.3H148.892C149.359 39.3 149.619 39.4333 149.672 39.7H149.722C149.902 39.5533 150.109 39.4333 150.342 39.34C150.582 39.2467 150.839 39.2 151.112 39.2C152.066 39.2 152.542 39.6267 152.542 40.48C152.542 40.5733 152.509 40.82 152.442 41.22C152.382 41.62 152.226 42.5467 151.972 44H151.072C151.446 41.9133 151.632 40.7833 151.632 40.61C151.632 40.2833 151.546 40.0433 151.372 39.89C151.206 39.73 150.992 39.65 150.732 39.65C150.399 39.65 150.036 39.8267 149.642 40.18L148.972 44H148.072ZM154.911 44.1C154.437 44.1 154.077 43.94 153.831 43.62C153.591 43.3 153.471 42.8767 153.471 42.35C153.471 41.8767 153.561 41.3967 153.741 40.91C153.921 40.4233 154.191 40.0167 154.551 39.69C154.917 39.3633 155.357 39.2 155.871 39.2C156.124 39.2 156.344 39.2267 156.531 39.28C156.717 39.3333 156.897 39.4067 157.071 39.5C157.144 39.0733 157.194 38.7667 157.221 38.58C157.254 38.3867 157.271 38.25 157.271 38.17C157.271 37.9833 157.227 37.8433 157.141 37.75C157.054 37.65 156.907 37.6 156.701 37.6H156.501L156.541 37.4H157.441C157.721 37.4 157.914 37.44 158.021 37.52C158.134 37.6 158.191 37.7633 158.191 38.01C158.191 38.11 158.134 38.5033 158.021 39.19C157.907 39.87 157.627 41.4733 157.181 44H156.681L156.401 43.55H156.351C156.197 43.71 156.007 43.8433 155.781 43.95C155.561 44.05 155.271 44.1 154.911 44.1ZM155.281 43.7C155.554 43.7 155.774 43.6467 155.941 43.54C156.114 43.4333 156.277 43.2867 156.431 43.1L157.001 39.9C156.827 39.8067 156.667 39.7333 156.521 39.68C156.381 39.6267 156.241 39.6 156.101 39.6C155.714 39.6 155.394 39.7533 155.141 40.06C154.887 40.3667 154.704 40.74 154.591 41.18C154.477 41.6133 154.421 42.03 154.421 42.43C154.421 42.83 154.491 43.1433 154.631 43.37C154.771 43.59 154.987 43.7 155.281 43.7ZM161.125 45.7C161.451 45.7 161.735 45.6233 161.975 45.47C162.215 45.3233 162.441 45.05 162.655 44.65L162.955 44.1L162.045 40.2C161.931 39.72 161.611 39.4533 161.085 39.4L161.115 39.2H161.965C162.545 39.2 162.898 39.4667 163.025 40L163.675 42.77L165.545 39.3H166.045L163.155 44.65C162.875 45.1767 162.598 45.5333 162.325 45.72C162.058 45.9067 161.738 46 161.365 46H161.065L161.125 45.7ZM168.083 44.1C167.503 44.1 167.053 43.9267 166.733 43.58C166.42 43.2267 166.263 42.77 166.263 42.21C166.263 41.7233 166.373 41.25 166.593 40.79C166.82 40.3233 167.137 39.9433 167.543 39.65C167.95 39.35 168.417 39.2 168.943 39.2C169.523 39.2 169.97 39.3767 170.283 39.73C170.603 40.0767 170.763 40.53 170.763 41.09C170.763 41.5767 170.65 42.0533 170.423 42.52C170.203 42.98 169.89 43.36 169.483 43.66C169.077 43.9533 168.61 44.1 168.083 44.1ZM168.153 43.7C168.5 43.7 168.8 43.5533 169.053 43.26C169.307 42.96 169.497 42.6 169.623 42.18C169.757 41.76 169.823 41.3767 169.823 41.03C169.823 40.6033 169.74 40.26 169.573 40C169.407 39.7333 169.173 39.6 168.873 39.6C168.527 39.6 168.227 39.75 167.973 40.05C167.72 40.3433 167.527 40.7 167.393 41.12C167.267 41.54 167.203 41.9233 167.203 42.27C167.203 42.6967 167.287 43.0433 167.453 43.31C167.62 43.57 167.853 43.7 168.153 43.7ZM173.176 44.1C172.216 44.1 171.736 43.6667 171.736 42.8C171.736 42.72 171.763 42.5133 171.816 42.18C171.87 41.8467 171.966 41.2867 172.106 40.5C172.14 40.2867 172.156 40.1367 172.156 40.05C172.156 39.8633 172.113 39.7267 172.026 39.64C171.94 39.5467 171.793 39.5 171.586 39.5H171.486L171.516 39.3H172.316C172.59 39.3 172.783 39.3433 172.896 39.43C173.016 39.51 173.076 39.67 173.076 39.91C173.076 40.0233 173.053 40.22 173.006 40.5C172.773 41.7933 172.656 42.52 172.656 42.68C172.656 43.0133 172.74 43.26 172.906 43.42C173.08 43.5733 173.296 43.65 173.556 43.65C173.89 43.65 174.253 43.4733 174.646 43.12L175.316 39.3H176.216L175.396 44H174.896L174.616 43.6H174.566C174.386 43.7467 174.176 43.8667 173.936 43.96C173.703 44.0533 173.45 44.1 173.176 44.1ZM176.967 44C177.221 42.5667 177.394 41.5667 177.487 41C177.581 40.4333 177.627 40.1167 177.627 40.05C177.627 39.8633 177.584 39.7267 177.497 39.64C177.411 39.5467 177.264 39.5 177.057 39.5H176.957L176.987 39.3H177.787C178.041 39.3 178.227 39.3367 178.347 39.41C178.467 39.4833 178.537 39.5967 178.557 39.75H178.607C178.761 39.5967 178.947 39.4667 179.167 39.36C179.387 39.2533 179.634 39.2 179.907 39.2C180.167 39.2 180.357 39.25 180.477 39.35C180.544 39.4033 180.597 39.4633 180.637 39.53C180.677 39.5967 180.717 39.6867 180.757 39.8L180.297 40.1C180.244 40 180.151 39.9267 180.017 39.88C179.891 39.8267 179.737 39.8 179.557 39.8C179.357 39.8 179.164 39.8467 178.977 39.94C178.797 40.0267 178.644 40.1467 178.517 40.3L177.867 44H176.967ZM184.941 44.1C184.501 44.1 184.117 44.0467 183.791 43.94C183.471 43.8333 183.311 43.6033 183.311 43.25C183.311 43.1567 183.321 43.0467 183.341 42.92C183.367 42.7867 183.384 42.6967 183.391 42.65H183.591V42.67C183.591 42.9967 183.691 43.25 183.891 43.43C184.091 43.61 184.397 43.7 184.811 43.7C185.111 43.7 185.391 43.6333 185.651 43.5C185.911 43.3667 186.041 43.1567 186.041 42.87C186.041 42.71 185.981 42.5733 185.861 42.46C185.747 42.34 185.557 42.22 185.291 42.1L184.731 41.85C184.411 41.71 184.167 41.55 184.001 41.37C183.834 41.1833 183.751 40.9633 183.751 40.71C183.751 40.4033 183.841 40.1367 184.021 39.91C184.207 39.6767 184.444 39.5 184.731 39.38C185.024 39.26 185.331 39.2 185.651 39.2C186.697 39.2 187.221 39.4767 187.221 40.03C187.221 40.1367 187.211 40.2567 187.191 40.39C187.171 40.5233 187.157 40.61 187.151 40.65H186.951V40.63C186.951 40.3033 186.854 40.05 186.661 39.87C186.467 39.69 186.174 39.6 185.781 39.6C185.507 39.6 185.251 39.6667 185.011 39.8C184.771 39.9267 184.651 40.1267 184.651 40.4C184.651 40.7067 184.871 40.9567 185.311 41.15L185.861 41.4C186.234 41.5667 186.507 41.7367 186.681 41.91C186.854 42.0833 186.941 42.3 186.941 42.56C186.941 42.88 186.844 43.1567 186.651 43.39C186.464 43.6233 186.217 43.8 185.911 43.92C185.604 44.04 185.281 44.1 184.941 44.1ZM189.773 44.1C189.193 44.1 188.743 43.9267 188.423 43.58C188.109 43.2267 187.953 42.77 187.953 42.21C187.953 41.7233 188.063 41.25 188.283 40.79C188.509 40.3233 188.826 39.9433 189.233 39.65C189.639 39.35 190.106 39.2 190.633 39.2C191.213 39.2 191.659 39.3767 191.973 39.73C192.293 40.0767 192.453 40.53 192.453 41.09C192.453 41.5767 192.339 42.0533 192.113 42.52C191.893 42.98 191.579 43.36 191.173 43.66C190.766 43.9533 190.299 44.1 189.773 44.1ZM189.843 43.7C190.189 43.7 190.489 43.5533 190.743 43.26C190.996 42.96 191.186 42.6 191.313 42.18C191.446 41.76 191.513 41.3767 191.513 41.03C191.513 40.6033 191.429 40.26 191.263 40C191.096 39.7333 190.863 39.6 190.563 39.6C190.216 39.6 189.916 39.75 189.663 40.05C189.409 40.3433 189.216 40.7 189.083 41.12C188.956 41.54 188.893 41.9233 188.893 42.27C188.893 42.6967 188.976 43.0433 189.143 43.31C189.309 43.57 189.543 43.7 189.843 43.7ZM194.866 44.1C193.906 44.1 193.426 43.6667 193.426 42.8C193.426 42.72 193.452 42.5133 193.506 42.18C193.559 41.8467 193.656 41.2867 193.796 40.5C193.829 40.2867 193.846 40.1367 193.846 40.05C193.846 39.8633 193.802 39.7267 193.716 39.64C193.629 39.5467 193.482 39.5 193.276 39.5H193.176L193.206 39.3H194.006C194.279 39.3 194.472 39.3433 194.586 39.43C194.706 39.51 194.766 39.67 194.766 39.91C194.766 40.0233 194.742 40.22 194.696 40.5C194.462 41.7933 194.346 42.52 194.346 42.68C194.346 43.0133 194.429 43.26 194.596 43.42C194.769 43.5733 194.986 43.65 195.246 43.65C195.579 43.65 195.942 43.4733 196.336 43.12L197.006 39.3H197.906L197.086 44H196.586L196.306 43.6H196.256C196.076 43.7467 195.866 43.8667 195.626 43.96C195.392 44.0533 195.139 44.1 194.866 44.1ZM199.187 40.52C199.254 40.1133 199.334 39.6333 199.427 39.08C199.527 38.5267 199.577 38.2233 199.577 38.17C199.577 37.9833 199.534 37.8433 199.447 37.75C199.36 37.65 199.214 37.6 199.007 37.6H198.807L198.847 37.4H199.747C200.027 37.4 200.22 37.44 200.327 37.52C200.44 37.6 200.497 37.7633 200.497 38.01C200.497 38.11 200.44 38.5033 200.327 39.19C200.214 39.87 199.934 41.4733 199.487 44H198.587L199.187 40.52ZM201.158 44C201.412 42.5667 201.585 41.5667 201.678 41C201.772 40.4333 201.818 40.1167 201.818 40.05C201.818 39.8633 201.775 39.7267 201.688 39.64C201.602 39.5467 201.455 39.5 201.248 39.5H201.048L201.078 39.3H201.978C202.445 39.3 202.705 39.4333 202.758 39.7H202.808C202.988 39.5533 203.195 39.4333 203.428 39.34C203.668 39.2467 203.925 39.2 204.198 39.2C204.472 39.2 204.702 39.2533 204.888 39.36C205.075 39.4667 205.205 39.6467 205.278 39.9C205.492 39.68 205.742 39.51 206.028 39.39C206.322 39.2633 206.612 39.2 206.898 39.2C207.252 39.2 207.528 39.2867 207.728 39.46C207.935 39.6333 208.038 39.9367 208.038 40.37C208.038 40.4767 208.005 40.7367 207.938 41.15C207.878 41.5567 207.718 42.5067 207.458 44H206.558C206.812 42.54 206.972 41.6033 207.038 41.19C207.105 40.77 207.138 40.5133 207.138 40.42C207.138 40.1467 207.085 39.95 206.978 39.83C206.872 39.71 206.718 39.65 206.518 39.65C206.332 39.65 206.122 39.72 205.888 39.86C205.662 39.9933 205.485 40.14 205.358 40.3V40.37C205.358 40.4567 205.312 40.77 205.218 41.31C205.132 41.85 204.978 42.7467 204.758 44H203.858C204.112 42.54 204.272 41.6033 204.338 41.19C204.405 40.77 204.438 40.5133 204.438 40.42C204.438 40.1467 204.385 39.95 204.278 39.83C204.172 39.71 204.018 39.65 203.818 39.65C203.485 39.65 203.122 39.8267 202.728 40.18L202.058 44H201.158ZM210.399 44.1C209.919 44.1 209.556 43.94 209.309 43.62C209.069 43.3 208.949 42.8833 208.949 42.37C208.949 41.8833 209.039 41.4067 209.219 40.94C209.406 40.4667 209.679 40.07 210.039 39.75C210.406 39.4233 210.846 39.24 211.359 39.2C211.906 39.2 212.289 39.3833 212.509 39.75H212.559L212.989 39.3H213.489L212.819 43.13L212.669 44H212.169L211.889 43.55H211.839C211.686 43.71 211.496 43.8433 211.269 43.95C211.049 44.05 210.759 44.1 210.399 44.1ZM210.769 43.7C211.042 43.7 211.262 43.6467 211.429 43.54C211.602 43.4333 211.766 43.2867 211.919 43.1L212.439 40.2C212.326 40 212.212 39.85 212.099 39.75C211.986 39.65 211.816 39.6 211.589 39.6C211.209 39.6 210.892 39.7567 210.639 40.07C210.386 40.3767 210.199 40.7533 210.079 41.2C209.959 41.64 209.899 42.05 209.899 42.43C209.899 42.8167 209.969 43.1267 210.109 43.36C210.249 43.5867 210.469 43.7 210.769 43.7ZM215.473 44.1C215.159 44.1 214.913 44.02 214.733 43.86C214.559 43.7 214.473 43.4633 214.473 43.15C214.473 43.0433 214.663 41.8933 215.043 39.7H214.343L214.413 39.3H215.113L215.273 38.4L215.883 37.8H216.283L216.013 39.3H217.213L217.143 39.7H215.943C215.563 41.88 215.373 43.0133 215.373 43.1C215.373 43.5 215.563 43.7 215.943 43.7C216.103 43.7 216.239 43.6833 216.353 43.65C216.473 43.6167 216.596 43.5667 216.723 43.5L216.793 43.7C216.613 43.82 216.423 43.9167 216.223 43.99C216.029 44.0633 215.779 44.1 215.473 44.1ZM219.292 44.1C218.732 44.1 218.302 43.9333 218.002 43.6C217.709 43.26 217.562 42.8167 217.562 42.27C217.562 41.79 217.666 41.3133 217.872 40.84C218.079 40.36 218.379 39.9667 218.772 39.66C219.166 39.3533 219.626 39.2 220.152 39.2C220.719 39.2 221.139 39.3067 221.412 39.52C221.686 39.7267 221.822 40 221.822 40.34C221.822 40.6867 221.722 40.9867 221.522 41.24C221.329 41.4867 221.072 41.6767 220.752 41.81C220.432 41.9367 220.086 42 219.712 42H218.512C218.486 42.1333 218.472 42.27 218.472 42.41C218.472 42.7833 218.566 43.0933 218.752 43.34C218.946 43.58 219.216 43.7 219.562 43.7C219.876 43.7 220.152 43.6333 220.392 43.5C220.632 43.3667 220.869 43.1667 221.102 42.9L221.272 43.05C220.986 43.4233 220.682 43.6933 220.362 43.86C220.042 44.02 219.686 44.1 219.292 44.1ZM219.732 41.6C220.059 41.5867 220.329 41.4667 220.542 41.24C220.762 41.0067 220.872 40.7133 220.872 40.36C220.872 40.12 220.802 39.9333 220.662 39.8C220.529 39.6667 220.336 39.6 220.082 39.6C219.729 39.6 219.419 39.7767 219.152 40.13C218.886 40.4833 218.696 40.9733 218.582 41.6H219.732Z" fill="white"/>
</g>
<defs>
<clipPath id="clip0">
<rect width="224" height="47" fill="white"/>
</clipPath>
</defs>
</svg>
